<svg display="none" xmlns="http://www.w3.org/2000/svg">
    <symbol id="walker" viewBox="0 0 16 17">
        <g>
		   <g clip-path="url(#clip0)">
                <path d="M7.63987 3.57246C8.48831 3.57246 9.1761 2.88467 9.1761 2.03623C9.1761 1.18779 8.48831 0.5 7.63987 0.5C6.79143 0.5 6.10364 1.18779 6.10364 2.03623C6.10364 2.88467 6.79143 3.57246 7.63987 3.57246Z" fill="#AFAFAF"/>
                <path d="M11.867 7.37373C10.6019 6.64142 9.56392 5.65223 8.69015 4.48854C8.1411 3.71641 6.68949 3.75672 6.09963 4.46425C5.20233 5.33727 4.44097 6.23708 3.8371 7.13739C3.59024 7.50617 3.68838 8.00515 4.05692 8.25201C4.19437 8.34414 4.34934 8.3882 4.50331 8.3882C4.76219 8.3882 5.01656 8.26327 5.17129 8.03194C5.43642 7.63711 5.73711 7.24104 6.07009 6.84671C6.05732 7.68118 6.09913 9.18686 6.12016 9.8636C6.12717 10.0889 6.07585 10.3092 5.9712 10.5093C5.14299 12.0908 4.61322 13.5873 4.07544 15.4179C3.94375 15.8648 4.19987 16.3338 4.64652 16.4652C4.74767 16.495 4.84982 16.505 4.94846 16.4975C5.28846 16.4714 5.5924 16.2399 5.69404 15.8939C6.19027 14.2059 6.66971 12.8392 7.41755 11.3921C7.4556 11.3936 7.49366 11.3936 7.53222 11.3918C8.00966 12.8164 8.48735 14.2417 8.96555 15.6663C9.3128 16.7045 10.9239 16.1653 10.5756 15.1267C10.0531 13.5692 9.53137 12.0125 9.01061 10.4552C8.98032 10.3658 8.90696 10.0158 8.8967 9.90165C8.81057 8.94226 8.77928 7.98587 8.78854 7.02823C9.52161 7.7305 10.3345 8.33963 11.2376 8.86289C12.1382 9.38565 12.7556 7.88873 11.867 7.37373Z" fill="#AFAFAF"/>
            </g>
            <defs>
                <clipPath id="clip0">
                <rect width="16" height="16" fill="white" transform="translate(0 0.5)"/>
                </clipPath>
            </defs>
        </g>
    </symbol>

     <symbol id="arrow" viewBox="0 0 13 14">
        <g>
            <g clip-path="url(#clip0)">
            <path d="M6.036 3.61108L0.191897 9.45712C-0.0639745 9.71364 -0.0639745 10.1292 0.191897 10.3864C0.44777 10.6429 0.863375 10.6429 1.11925 10.3864L6.49964 5.00408L11.88 10.3858C12.1359 10.6423 12.5515 10.6423 12.808 10.3858C13.0639 10.1292 13.0639 9.713 12.808 9.45648L6.96399 3.61044C6.71076 3.35786 6.28863 3.35786 6.036 3.61108Z" fill="#111111"/>
            </g>
            <defs>
            <clipPath id="clip0">
            <rect width="13" height="13" fill="white" transform="translate(13 0.5) rotate(90)"/>
            </clipPath>
            </defs>
        </g>
    </symbol>

    <symbol id="close" viewBox="0 0 9 8">
        <g>
            <path d="M8.5 0.942702L7.5573 0L4.49999 3.05729L1.4427 0L0.5 0.942702L3.55729 3.99999L0.5 7.0573L1.4427 8L4.49999 4.94271L7.55728 8L8.49998 7.0573L5.44271 3.99999L8.5 0.942702Z" fill="#5F5F5F"/>
        </g>
    </symbol>

    <symbol id="more" viewBox="0 0 30 30">
        <g>
            <path d="M1.17188 13.8281H13.8281V1.17188C13.8281 0.524648 14.3528 0 15 0C15.6472 0 16.1719 0.524648 16.1719 1.17188V13.8281H28.8281C29.4754 13.8281 30 14.3528 30 15C30 15.6472 29.4754 16.1719 28.8281 16.1719H16.1719V28.8281C16.1719 29.4754 15.6472 30 15 30C14.3528 30 13.8281 29.4754 13.8281 28.8281V16.1719H1.17188C0.524649 16.1719 0 15.6472 0 15C0 14.3528 0.524649 13.8281 1.17188 13.8281Z" fill="white"/>
        </g>
    </symbol>

    
</svg>